<svg xmlns="http://www.w3.org/2000/svg" width="680" height="372" viewBox="0 0 680 372" role="img">
  <title>Constructive and destructive interference of two sine waves</title>
  <desc>Left panel: two in-phase sine waves overlap and sum to a wave of double amplitude (constructive interference). Right panel: two waves 180 degrees out of phase overlap and sum to a flat line (destructive interference).</desc>
  <style>
    text { font-family: system-ui, -apple-system, "Segoe UI", Helvetica, Arial, sans-serif; }
    .t  { font-size: 14px; fill: #2C2C2A; }
    .ts { font-size: 12px; fill: #5F5E5A; }
    .th { font-size: 14px; font-weight: 500; fill: #2C2C2A; }
    @media (prefers-color-scheme: dark) {
      .t, .th { fill: #E8E6DE; }
      .ts { fill: #B4B2A9; }
    }
  </style>
  <defs>
    <marker id="arrow" viewBox="0 0 10 10" refX="8" refY="5" markerWidth="6" markerHeight="6" orient="auto-start-reverse"><path d="M2 1L8 5L2 9" fill="none" stroke="context-stroke" stroke-width="1.5" stroke-linecap="round" stroke-linejoin="round"/></marker>
  </defs>

  <line x1="340" y1="20" x2="340" y2="330" stroke="#B4B2A9" stroke-width="0.5" stroke-dasharray="2 5"/>

  <text class="th" x="180" y="26" text-anchor="middle">Constructive interference</text>
  <text class="ts" x="180" y="44" text-anchor="middle">two waves in phase</text>
  <text class="th" x="500" y="26" text-anchor="middle">Destructive interference</text>
  <text class="ts" x="500" y="44" text-anchor="middle">two waves out of phase (180°)</text>

  <line x1="44" y1="120" x2="314" y2="120" stroke="#B4B2A9" stroke-width="0.5" stroke-dasharray="4 4"/>
  <line x1="364" y1="120" x2="634" y2="120" stroke="#B4B2A9" stroke-width="0.5" stroke-dasharray="4 4"/>

  <path d="M44.0 120.0 L47.0 114.6 L50.0 109.4 L53.0 104.7 L56.0 100.7 L59.0 97.5 L62.0 95.3 L65.0 94.1 L68.0 94.1 L71.0 95.3 L74.0 97.5 L77.0 100.7 L80.0 104.7 L83.0 109.4 L86.0 114.6 L89.0 120.0 L92.0 125.4 L95.0 130.6 L98.0 135.3 L101.0 139.3 L104.0 142.5 L107.0 144.7 L110.0 145.9 L113.0 145.9 L116.0 144.7 L119.0 142.5 L122.0 139.3 L125.0 135.3 L128.0 130.6 L131.0 125.4 L134.0 120.0 L137.0 114.6 L140.0 109.4 L143.0 104.7 L146.0 100.7 L149.0 97.5 L152.0 95.3 L155.0 94.1 L158.0 94.1 L161.0 95.3 L164.0 97.5 L167.0 100.7 L170.0 104.7 L173.0 109.4 L176.0 114.6 L179.0 120.0 L182.0 125.4 L185.0 130.6 L188.0 135.3 L191.0 139.3 L194.0 142.5 L197.0 144.7 L200.0 145.9 L203.0 145.9 L206.0 144.7 L209.0 142.5 L212.0 139.3 L215.0 135.3 L218.0 130.6 L221.0 125.4 L224.0 120.0 L227.0 114.6 L230.0 109.4 L233.0 104.7 L236.0 100.7 L239.0 97.5 L242.0 95.3 L245.0 94.1 L248.0 94.1 L251.0 95.3 L254.0 97.5 L257.0 100.7 L260.0 104.7 L263.0 109.4 L266.0 114.6 L269.0 120.0 L272.0 125.4 L275.0 130.6 L278.0 135.3 L281.0 139.3 L284.0 142.5 L287.0 144.7 L290.0 145.9 L293.0 145.9 L296.0 144.7 L299.0 142.5 L302.0 139.3 L305.0 135.3 L308.0 130.6 L311.0 125.4 L314.0 120.0" fill="none" stroke="#185FA5" stroke-width="2"/>
  <path d="M44.0 120.0 L47.0 114.6 L50.0 109.4 L53.0 104.7 L56.0 100.7 L59.0 97.5 L62.0 95.3 L65.0 94.1 L68.0 94.1 L71.0 95.3 L74.0 97.5 L77.0 100.7 L80.0 104.7 L83.0 109.4 L86.0 114.6 L89.0 120.0 L92.0 125.4 L95.0 130.6 L98.0 135.3 L101.0 139.3 L104.0 142.5 L107.0 144.7 L110.0 145.9 L113.0 145.9 L116.0 144.7 L119.0 142.5 L122.0 139.3 L125.0 135.3 L128.0 130.6 L131.0 125.4 L134.0 120.0 L137.0 114.6 L140.0 109.4 L143.0 104.7 L146.0 100.7 L149.0 97.5 L152.0 95.3 L155.0 94.1 L158.0 94.1 L161.0 95.3 L164.0 97.5 L167.0 100.7 L170.0 104.7 L173.0 109.4 L176.0 114.6 L179.0 120.0 L182.0 125.4 L185.0 130.6 L188.0 135.3 L191.0 139.3 L194.0 142.5 L197.0 144.7 L200.0 145.9 L203.0 145.9 L206.0 144.7 L209.0 142.5 L212.0 139.3 L215.0 135.3 L218.0 130.6 L221.0 125.4 L224.0 120.0 L227.0 114.6 L230.0 109.4 L233.0 104.7 L236.0 100.7 L239.0 97.5 L242.0 95.3 L245.0 94.1 L248.0 94.1 L251.0 95.3 L254.0 97.5 L257.0 100.7 L260.0 104.7 L263.0 109.4 L266.0 114.6 L269.0 120.0 L272.0 125.4 L275.0 130.6 L278.0 135.3 L281.0 139.3 L284.0 142.5 L287.0 144.7 L290.0 145.9 L293.0 145.9 L296.0 144.7 L299.0 142.5 L302.0 139.3 L305.0 135.3 L308.0 130.6 L311.0 125.4 L314.0 120.0" fill="none" stroke="#EF9F27" stroke-width="2" stroke-dasharray="5 4"/>

  <path d="M364.0 120.0 L367.0 114.6 L370.0 109.4 L373.0 104.7 L376.0 100.7 L379.0 97.5 L382.0 95.3 L385.0 94.1 L388.0 94.1 L391.0 95.3 L394.0 97.5 L397.0 100.7 L400.0 104.7 L403.0 109.4 L406.0 114.6 L409.0 120.0 L412.0 125.4 L415.0 130.6 L418.0 135.3 L421.0 139.3 L424.0 142.5 L427.0 144.7 L430.0 145.9 L433.0 145.9 L436.0 144.7 L439.0 142.5 L442.0 139.3 L445.0 135.3 L448.0 130.6 L451.0 125.4 L454.0 120.0 L457.0 114.6 L460.0 109.4 L463.0 104.7 L466.0 100.7 L469.0 97.5 L472.0 95.3 L475.0 94.1 L478.0 94.1 L481.0 95.3 L484.0 97.5 L487.0 100.7 L490.0 104.7 L493.0 109.4 L496.0 114.6 L499.0 120.0 L502.0 125.4 L505.0 130.6 L508.0 135.3 L511.0 139.3 L514.0 142.5 L517.0 144.7 L520.0 145.9 L523.0 145.9 L526.0 144.7 L529.0 142.5 L532.0 139.3 L535.0 135.3 L538.0 130.6 L541.0 125.4 L544.0 120.0 L547.0 114.6 L550.0 109.4 L553.0 104.7 L556.0 100.7 L559.0 97.5 L562.0 95.3 L565.0 94.1 L568.0 94.1 L571.0 95.3 L574.0 97.5 L577.0 100.7 L580.0 104.7 L583.0 109.4 L586.0 114.6 L589.0 120.0 L592.0 125.4 L595.0 130.6 L598.0 135.3 L601.0 139.3 L604.0 142.5 L607.0 144.7 L610.0 145.9 L613.0 145.9 L616.0 144.7 L619.0 142.5 L622.0 139.3 L625.0 135.3 L628.0 130.6 L631.0 125.4 L634.0 120.0" fill="none" stroke="#185FA5" stroke-width="2"/>
  <path d="M364.0 120.0 L367.0 125.4 L370.0 130.6 L373.0 135.3 L376.0 139.3 L379.0 142.5 L382.0 144.7 L385.0 145.9 L388.0 145.9 L391.0 144.7 L394.0 142.5 L397.0 139.3 L400.0 135.3 L403.0 130.6 L406.0 125.4 L409.0 120.0 L412.0 114.6 L415.0 109.4 L418.0 104.7 L421.0 100.7 L424.0 97.5 L427.0 95.3 L430.0 94.1 L433.0 94.1 L436.0 95.3 L439.0 97.5 L442.0 100.7 L445.0 104.7 L448.0 109.4 L451.0 114.6 L454.0 120.0 L457.0 125.4 L460.0 130.6 L463.0 135.3 L466.0 139.3 L469.0 142.5 L472.0 144.7 L475.0 145.9 L478.0 145.9 L481.0 144.7 L484.0 142.5 L487.0 139.3 L490.0 135.3 L493.0 130.6 L496.0 125.4 L499.0 120.0 L502.0 114.6 L505.0 109.4 L508.0 104.7 L511.0 100.7 L514.0 97.5 L517.0 95.3 L520.0 94.1 L523.0 94.1 L526.0 95.3 L529.0 97.5 L532.0 100.7 L535.0 104.7 L538.0 109.4 L541.0 114.6 L544.0 120.0 L547.0 125.4 L550.0 130.6 L553.0 135.3 L556.0 139.3 L559.0 142.5 L562.0 144.7 L565.0 145.9 L568.0 145.9 L571.0 144.7 L574.0 142.5 L577.0 139.3 L580.0 135.3 L583.0 130.6 L586.0 125.4 L589.0 120.0 L592.0 114.6 L595.0 109.4 L598.0 104.7 L601.0 100.7 L604.0 97.5 L607.0 95.3 L610.0 94.1 L613.0 94.1 L616.0 95.3 L619.0 97.5 L622.0 100.7 L625.0 104.7 L628.0 109.4 L631.0 114.6 L634.0 120.0" fill="none" stroke="#EF9F27" stroke-width="2" stroke-dasharray="5 4"/>

  <line x1="180" y1="158" x2="180" y2="180" stroke="#888780" stroke-width="1.5" marker-end="url(#arrow)"/>
  <text class="ts" x="192" y="174" text-anchor="start">sum</text>
  <line x1="500" y1="158" x2="500" y2="180" stroke="#888780" stroke-width="1.5" marker-end="url(#arrow)"/>
  <text class="ts" x="512" y="174" text-anchor="start">sum</text>

  <line x1="44" y1="250" x2="314" y2="250" stroke="#B4B2A9" stroke-width="0.5" stroke-dasharray="4 4"/>
  <line x1="364" y1="250" x2="634" y2="250" stroke="#B4B2A9" stroke-width="0.5" stroke-dasharray="4 4"/>

  <path d="M44.0 250.0 L47.0 239.2 L50.0 228.8 L53.0 219.4 L56.0 211.4 L59.0 205.0 L62.0 200.5 L65.0 198.3 L68.0 198.3 L71.0 200.5 L74.0 205.0 L77.0 211.4 L80.0 219.4 L83.0 228.8 L86.0 239.2 L89.0 250.0 L92.0 260.8 L95.0 271.2 L98.0 280.6 L101.0 288.6 L104.0 295.0 L107.0 299.5 L110.0 301.7 L113.0 301.7 L116.0 299.5 L119.0 295.0 L122.0 288.6 L125.0 280.6 L128.0 271.2 L131.0 260.8 L134.0 250.0 L137.0 239.2 L140.0 228.8 L143.0 219.4 L146.0 211.4 L149.0 205.0 L152.0 200.5 L155.0 198.3 L158.0 198.3 L161.0 200.5 L164.0 205.0 L167.0 211.4 L170.0 219.4 L173.0 228.8 L176.0 239.2 L179.0 250.0 L182.0 260.8 L185.0 271.2 L188.0 280.6 L191.0 288.6 L194.0 295.0 L197.0 299.5 L200.0 301.7 L203.0 301.7 L206.0 299.5 L209.0 295.0 L212.0 288.6 L215.0 280.6 L218.0 271.2 L221.0 260.8 L224.0 250.0 L227.0 239.2 L230.0 228.8 L233.0 219.4 L236.0 211.4 L239.0 205.0 L242.0 200.5 L245.0 198.3 L248.0 198.3 L251.0 200.5 L254.0 205.0 L257.0 211.4 L260.0 219.4 L263.0 228.8 L266.0 239.2 L269.0 250.0 L272.0 260.8 L275.0 271.2 L278.0 280.6 L281.0 288.6 L284.0 295.0 L287.0 299.5 L290.0 301.7 L293.0 301.7 L296.0 299.5 L299.0 295.0 L302.0 288.6 L305.0 280.6 L308.0 271.2 L311.0 260.8 L314.0 250.0" fill="none" stroke="#1D9E75" stroke-width="2.5"/>
  <line x1="364" y1="250" x2="634" y2="250" stroke="#1D9E75" stroke-width="2.5"/>

  <text class="ts" x="180" y="326" text-anchor="middle">amplitude doubles</text>
  <text class="ts" x="500" y="326" text-anchor="middle">waves cancel to zero</text>

  <line x1="150" y1="352" x2="176" y2="352" stroke="#185FA5" stroke-width="2"/>
  <text class="ts" x="182" y="356" text-anchor="start">wave 1</text>
  <line x1="252" y1="352" x2="278" y2="352" stroke="#EF9F27" stroke-width="2" stroke-dasharray="5 4"/>
  <text class="ts" x="284" y="356" text-anchor="start">wave 2</text>
  <line x1="354" y1="352" x2="380" y2="352" stroke="#1D9E75" stroke-width="2.5"/>
  <text class="ts" x="386" y="356" text-anchor="start">resultant (sum)</text>
</svg>
